<?xml version="1.0" encoding="utf-8"?>
<!-- Generator: Adobe Illustrator 21.1.0, SVG Export Plug-In . SVG Version: 6.00 Build 0)  -->
<svg version="1.1" id="图层_1" xmlns="http://www.w3.org/2000/svg" xmlns:xlink="http://www.w3.org/1999/xlink" x="0px" y="0px"
	 viewBox="0 0 1024 1024" style="enable-background:new 0 0 1024 1024;" xml:space="preserve">
<style type="text/css">
	.st0{fill:#FFFFFF;fill-opacity:0;}
	.st1{fill:#FFFFFF;}
	.st2{fill:#A2C7FC;}
	.st3{fill:#B6D4FF;}
</style>
<title>nol</title>
<desc>Created with Sketch.</desc>
<g id="红包新修改">
	<g id="nol_1_">
		<rect id="Rectangle-Copy-5" class="st0" width="1024" height="1024"/>
		<g id="Group-16" transform="translate(153.000000, 64.000000)">
			<rect id="Rectangle" x="79" y="131" class="st1" width="542" height="680"/>
			<g id="nol">
				<path id="Path" class="st2" d="M370.7,647.7c-24.8,0-40.1,21.2-40.1,55.3s15.8,56.4,40.1,56.4c24.3,0,40.3-22.1,40.3-56.3
					C411,668.9,395.6,647.7,370.7,647.7z"/>
				<path id="Shape" class="st2" d="M516.9,0h-483C15.5,0,0.5,14.7,0.5,32.6v830.8c0,17.9,15,32.6,33.4,32.6h650.2
					c18.4,0,33.4-14.7,33.4-32.6V195.5L516.9,0z M274,780.4h-27l-51-89.5l-13.8-27.2l0.4,4.6c1.1,13,2.3,26.5,2.3,39.6v72.5h-25.7
					V626.9h27l51,89.1l13.8,27.5l-0.3-3.8c-1.1-13.1-2.4-27.8-2.4-41.2v-71.6H274V780.4z M419.7,761.5
					c-12.2,14.1-29.2,21.6-49.1,21.6s-36.8-7.5-49-21.6c-12.2-14.1-18.8-34.5-18.8-58.4c0-48,26.6-79,67.8-79s68,31,68,79
					C438.7,727,432.1,747.2,419.7,761.5L419.7,761.5z M447.7,435l-195.6,84.8c-6,2.7-13.2,0.7-16.9-4.7s-3.1-12.8,1.6-17.5l116-116
					l0,0c4.1,1.6,8.5,2.5,12.9,2.5c13.8,0,26.3-8.3,31.6-21.1c5.3-12.8,2.4-27.5-7.4-37.3s-24.5-12.7-37.3-7.4s-21.1,17.8-21.1,31.6
					c0,4.4,0.9,8.8,2.5,12.9L218.2,478.6c-2.6,2.7-6.2,4.2-9.9,4.2c-4.6,0-8.9-2.3-11.4-6.1c-2.5-3.8-3-8.6-1.2-12.9l84.7-195.4
					c2-4.7,6.1-8.3,11-9.7l113-31.4l-6.2-6.2c-4.3-4.3-5.9-10.4-4.4-16.3s6.1-10.3,11.9-11.9c5.8-1.6,12,0.1,16.3,4.4l96.5,96.5
					c4.3,4.3,5.9,10.4,4.4,16.3c-1.6,5.8-6.1,10.3-11.9,11.9c-5.8,1.6-12-0.1-16.3-4.4l-6.3-6.2L457,424.1
					C455.7,428.9,452.3,432.9,447.7,435z M558.8,780.4h-91.4V626.9h27v130.5h64.4V780.4z"/>
				<path id="Path_1_" class="st3" d="M516.9,0v162.9c0,17.9,15,32.6,33.4,32.6h167.2L516.9,0z"/>
			</g>
		</g>
	</g>
</g>
</svg>
