<?xml version="1.0" encoding="utf-8"?>
<!-- Generator: Adobe Illustrator 21.1.0, SVG Export Plug-In . SVG Version: 6.00 Build 0)  -->
<svg version="1.1" id="图层_1" xmlns="http://www.w3.org/2000/svg" xmlns:xlink="http://www.w3.org/1999/xlink" x="0px" y="0px"
	 viewBox="0 0 1024 1024" style="enable-background:new 0 0 1024 1024;" xml:space="preserve">
<style type="text/css">
	.st0{fill:#FFFFFF;fill-opacity:0;}
	.st1{fill:#F9AB4E;}
	.st2{fill:#FFC580;}
	.st3{fill:#FFFFFF;}
</style>
<title>ngm</title>
<desc>Created with Sketch.</desc>
<g id="红包新修改">
	<g id="ngm">
		<rect id="Rectangle" class="st0" width="1024" height="1024"/>
		<g transform="translate(153.000000, 64.000000)">
			<path id="Path" class="st1" d="M33.9,0C15.5,0,0.5,14.7,0.5,32.6v830.8c0,17.9,15,32.6,33.4,32.6h650.2
				c18.4,0,33.4-14.7,33.4-32.6V195.5L516.9,0H33.9z"/>
			<path id="Path_1_" class="st2" d="M516.9,0v162.9c0,17.9,15,32.6,33.4,32.6h167.2L516.9,0z"/>
			<path id="Shape" class="st3" d="M541.7,537.7h-19.3v-72.1c0-20.3-16.5-36.8-36.8-36.8H373v-70.6h19.7c14.3,0,25.9-11.6,25.9-25.9
				V265c0-14.3-11.6-25.9-25.9-25.9h-67.4c-14.3,0-25.9,11.6-25.9,25.9v67.4c0,14.3,11.6,25.9,25.9,25.9h17.9v70.6H232.3
				c-20.3,0-36.8,16.5-36.8,36.8v72.1h-19.2c-14.3,0-25.9,11.6-25.9,25.9V631c0,14.3,11.6,25.9,25.9,25.9h67.4
				c14.3,0,25.9-11.6,25.9-25.9v-67.4c0-14.3-11.6-25.9-25.9-25.9h-18.3v-72.1c0-3.9,3.1-7,7-7h110.8v79.1h-17.9
				c-14.3,0-25.9,11.6-25.9,25.9V631c0,14.3,11.6,25.9,25.9,25.9h67.4c14.3,0,25.9-11.6,25.9-25.9v-67.5c0-14.3-11.6-25.9-25.9-25.9
				h-19.6v-78.9h112.6c3.9,0,7,3.1,7,7v72h-18.4c-14.3,0-25.9,11.6-25.9,25.9V631c0,14.3,11.6,25.9,25.9,25.9h67.4
				c14.3,0,25.9-11.6,25.9-25.9v-67.4C567.5,549.3,556,537.8,541.7,537.7z M537.7,575.6V619c0,4.4-3.6,8-8,8h-43.5c-4.4,0-8-3.6-8-8
				v-43.4c0-4.4,3.6-8,8-8h43.4c2.1,0,4.2,0.8,5.7,2.3C536.8,571.4,537.7,573.5,537.7,575.6L537.7,575.6z M329.3,619v-43.4
				c0-4.4,3.6-8,8-8h43.4c4.4,0,8,3.6,8,8V619c0,4.4-3.6,8-8,8h-43.4C332.9,627,329.3,623.4,329.3,619z M388.7,277v43.4
				c0,4.4-3.6,8-8,8h-43.4c-4.4,0-8-3.6-8-8V277c0-4.4,3.6-8,8-8h43.4C385.1,269,388.7,272.6,388.7,277z M180.3,619v-43.4
				c0-4.4,3.6-8,8-8h43.4c4.4,0,8,3.6,8,8V619c0,4.4-3.6,8-8,8h-43.4C183.9,627,180.3,623.4,180.3,619z"/>
		</g>
	</g>
</g>
</svg>
