<?xml version="1.0" encoding="utf-8"?>
<!-- Generator: Adobe Illustrator 21.1.0, SVG Export Plug-In . SVG Version: 6.00 Build 0)  -->
<svg version="1.1" id="图层_1" xmlns="http://www.w3.org/2000/svg" xmlns:xlink="http://www.w3.org/1999/xlink" x="0px" y="0px"
	 viewBox="0 0 1024 1024" style="enable-background:new 0 0 1024 1024;" xml:space="preserve">
<style type="text/css">
	.st0{fill:#FFFFFF;fill-opacity:0;}
	.st1{fill:#6089C6;}
	.st2{fill:#93B8E5;}
	.st3{fill:#FFFFFF;}
</style>
<title>md</title>
<desc>Created with Sketch.</desc>
<g id="红包新修改">
	<g id="md">
		<rect id="Rectangle-Copy-4" class="st0" width="1024" height="1024"/>
		<g transform="translate(153.000000, 64.000000)">
			<path id="Path" class="st1" d="M33.9,0C15.5,0,0.5,14.7,0.5,32.6v830.8c0,17.9,15,32.6,33.4,32.6h650.2
				c18.4,0,33.4-14.7,33.4-32.6V195.5L516.9,0H33.9z"/>
			<path id="Path_1_" class="st2" d="M516.9,0v162.9c0,17.9,15,32.6,33.4,32.6h167.2L516.9,0z"/>
			<path id="Path_2_" class="st3" d="M224.9,617.7h25.9l26.3,72.5c3.3,9.5,6.2,19.3,9.6,29h1c3.3-9.7,6-19.5,9.4-29l25.9-72.5h26
				v143.4h-21v-70.9c0-12.9,1.8-31.4,2.9-44.4h-0.8l-11.5,33.1l-24.9,68.4h-14l-25.1-68.4l-11.3-33.1h-0.8c1,13.1,2.7,31.6,2.7,44.4
				v70.9h-20.3V617.7z"/>
			<path id="Shape" class="st3" d="M386.7,617.7h37.2c44,0,69.2,24.3,69.2,71.1s-25.1,72.3-68,72.3h-38.4V617.7z M422.4,742.6
				c30.8,0,47.3-18.1,47.3-53.8S453.1,636,422.3,636h-13v106.5L422.4,742.6z"/>
			<rect id="Rectangle" x="341.1" y="286.7" class="st3" width="219.6" height="26.9"/>
			<rect id="Rectangle_1_" x="341.1" y="376.3" class="st3" width="219.6" height="26.9"/>
			<rect id="Rectangle_2_" x="157.3" y="465.9" class="st3" width="403.3" height="26.9"/>
			<path id="Path_3_" class="st3" d="M207.6,351.5l-40.1-40.1c-1-1-2.4-1.3-3.7-0.7c-1.3,0.5-2.1,1.8-2.1,3.1V394
				c0,1.4,0.8,2.6,2.1,3.1c1.3,0.5,2.7,0.2,3.7-0.7l40.1-40.1C208.9,355,208.9,352.8,207.6,351.5z"/>
			<path id="Path_4_" class="st3" d="M269.1,286.7H189c-1.4,0-2.6,0.8-3.1,2.1c-0.5,1.3-0.2,2.7,0.7,3.7l40.1,40.1
				c1.3,1.3,3.5,1.3,4.8,0l40.1-40.1c1-1,1.3-2.5,0.7-3.7C271.8,287.5,270.5,286.7,269.1,286.7z"/>
			<path id="Path_5_" class="st3" d="M250.4,356.3l40.1,40.1c1,1,2.4,1.3,3.7,0.7c1.3-0.5,2.1-1.8,2.1-3.1v-80.1
				c0-1.4-0.8-2.6-2.1-3.1c-1.3-0.5-2.7-0.2-3.7,0.7l-40.1,40.1C249.1,352.9,249.1,355,250.4,356.3z"/>
			<path id="Path_6_" class="st3" d="M271.5,415.4l-40.1-40.1c-1.3-1.3-3.5-1.3-4.8,0l-40.1,40.1c-1,1-1.3,2.4-0.7,3.7
				s1.8,2.1,3.1,2.1H269c1.4,0,2.7-0.8,3.2-2.1C272.8,417.9,272.5,416.4,271.5,415.4L271.5,415.4z"/>
		</g>
	</g>
</g>
</svg>
